<svg width="49" height="38" viewBox="0 0 49 38" fill="none" xmlns="http://www.w3.org/2000/svg">
<path d="M49.0496 10.7115L42.1098 28.4328H15.9863L6.84067 4.24263H0L0.0495701 0.995789H9.04653L18.1922 25.186H39.8791L45.3566 10.7115" fill="#B2DEC3"/>
<path d="M35.6415 38.0006C37.421 38.0006 38.8635 36.558 38.8635 34.7785C38.8635 32.999 37.421 31.5565 35.6415 31.5565C33.862 31.5565 32.4194 32.999 32.4194 34.7785C32.4194 36.558 33.862 38.0006 35.6415 38.0006Z" fill="#B2DEC3"/>
<path d="M22.5062 38.0006C24.2857 38.0006 25.7283 36.558 25.7283 34.7785C25.7283 32.999 24.2857 31.5565 22.5062 31.5565C20.7267 31.5565 19.2842 32.999 19.2842 34.7785C19.2842 36.558 20.7267 38.0006 22.5062 38.0006Z" fill="#B2DEC3"/>
</svg>
